<?xml version="1.0" standalone="no"?>
<!DOCTYPE svg PUBLIC "-//W3C//DTD SVG 20010904//EN"
 "http://www.w3.org/TR/2001/REC-SVG-20010904/DTD/svg10.dtd">
<svg version="1.0" xmlns="http://www.w3.org/2000/svg"
 width="498.000000pt" height="498.000000pt" viewBox="0 0 498.000000 498.000000"
 preserveAspectRatio="xMidYMid meet">
<metadata>
Created by potrace 1.11, written by Peter Selinger 2001-2013
</metadata>
<g transform="translate(0.000000,498.000000) scale(0.100000,-0.100000)"
fill="#000000" stroke="none">
<path d="M1970 4178 c0 -28 3 -49 6 -45 15 15 82 -34 101 -72 32 -64 16 -157
-62 -356 -13 -33 -40 -103 -60 -155 -19 -52 -40 -104 -45 -115 -5 -11 -18 -42
-28 -70 -10 -27 -22 -59 -27 -70 -4 -11 -9 -24 -11 -30 -1 -5 -23 -62 -49
-125 -26 -63 -65 -162 -86 -220 -22 -58 -46 -118 -53 -135 -14 -31 -70 -176
-71 -185 -1 -3 -9 -22 -18 -44 -9 -21 -17 -42 -17 -47 0 -5 -4 -17 -10 -27 -5
-9 -23 -53 -40 -97 -18 -44 -39 -97 -47 -118 -9 -21 -16 -44 -16 -52 0 -8 -4
-15 -9 -15 -4 0 -8 -7 -8 -15 0 -8 -4 -23 -10 -33 -5 -9 -35 -82 -65 -162 -31
-80 -68 -174 -83 -210 -15 -36 -27 -67 -27 -70 0 -3 -9 -23 -19 -45 -10 -22
-35 -74 -54 -115 -89 -189 -190 -294 -314 -324 -26 -6 -28 -10 -28 -54 l0 -47
487 2 c269 1 491 2 496 2 4 1 7 21 7 45 l0 44 -42 7 c-196 32 -255 174 -173
420 22 69 87 241 105 280 5 11 21 52 36 90 14 39 32 84 39 100 7 17 33 82 58
145 l46 115 73 -1 c69 -2 120 -6 213 -19 45 -6 189 -42 220 -55 11 -4 36 -14
55 -21 123 -44 296 -150 390 -237 30 -29 59 -52 63 -52 5 0 5 -4 2 -10 -3 -5
-2 -10 3 -10 5 0 31 -30 57 -66 67 -91 118 -202 133 -289 10 -60 7 -236 -5
-243 -6 -4 -13 -17 -17 -29 -11 -36 -86 -92 -146 -111 -55 -17 -55 -17 -57
-60 -1 -39 1 -42 25 -43 35 -1 1220 -1 1248 0 19 1 21 6 20 43 -2 38 -5 43
-42 59 -21 10 -45 18 -52 18 -25 2 -100 82 -130 139 -34 65 -68 151 -123 307
-22 61 -42 117 -46 125 -3 8 -7 20 -9 25 -3 11 -75 213 -100 280 -8 22 -23 65
-33 95 -11 30 -25 69 -32 85 -6 17 -13 35 -14 41 -2 10 -96 272 -112 314 -3 8
-7 20 -9 25 -2 11 -61 170 -71 195 -3 8 -7 20 -9 25 -6 25 -84 237 -91 248 -4
6 -8 18 -9 27 -1 8 -41 123 -89 255 -83 228 -105 294 -104 305 0 3 -5 19 -11
35 -15 38 -17 45 -36 130 -26 118 -8 175 71 219 36 21 40 27 41 64 l0 42 -588
0 -588 0 0 -52z m408 -535 c5 -16 20 -55 32 -88 12 -33 26 -69 30 -80 5 -11
25 -65 45 -120 20 -55 39 -107 42 -115 3 -8 7 -17 8 -20 1 -3 4 -12 7 -20 3
-8 16 -44 29 -80 12 -36 27 -74 32 -85 6 -11 12 -27 13 -35 2 -15 86 -247 104
-285 5 -11 14 -38 21 -60 6 -22 15 -44 19 -50 4 -5 14 -33 23 -61 9 -27 19
-58 23 -67 5 -14 2 -16 -12 -11 -11 4 -28 15 -39 24 -11 10 -33 25 -50 34 -16
9 -48 27 -70 41 -22 13 -74 37 -115 54 -121 47 -125 49 -165 54 -12 2 -25 6
-30 9 -23 13 -191 40 -260 41 -85 2 -87 5 -55 75 10 23 16 42 13 42 -3 0 -1 6
4 13 6 6 20 37 31 67 11 30 26 69 33 85 6 17 13 35 15 40 2 6 39 102 84 215
45 113 82 210 84 215 1 6 5 15 8 21 4 6 14 31 22 56 26 75 46 118 55 118 5 0
13 -12 19 -27z"/>
<path d="M2797 828 c-21 -21 -55 -46 -75 -55 -66 -32 -200 -20 -307 27 -56 25
-166 51 -215 52 -109 1 -210 -69 -305 -213 l-48 -73 28 -22 29 -23 30 35 c70
82 158 105 276 73 35 -10 68 -15 72 -13 4 3 8 1 8 -4 0 -8 66 -34 95 -38 6 0
17 -4 25 -7 74 -29 173 -29 241 1 50 22 169 126 169 148 0 8 4 14 8 14 9 0 67
100 60 104 -49 33 -52 33 -91 -6z"/>
</g>
</svg>
